# xmcd
#
# Track frame offsets:
#	150
#	21622
#	45169
#	71381
#	92446
#	110440
#	133769
#	160884
#	181477
#	202866
#	218798
#	235364
#	267997
#	292294
#	314449
#	334424
#
# Disc length: 4733 seconds
#
# Revision: 1
# Processed by: cddbd v1.5.2PL0 Copyright (c) Steve Scherf et al.
# Submitted via: audiograbber 1.83.01
#
DISCID=f1127b10
DTITLE=Samina Chowdhury - Best Of Samina Chowdhury
DYEAR=2010
DGENRE=Mood Music
TTITLE0=Kobita Porar Prohor Eshechhe
TTITLE1=Shomoy Jeno Kate Na
TTITLE2=Ghum Ghum Chokh
TTITLE3=Nodi Chai Cholte
TTITLE4=Kono Ak Shundory Rate
TTITLE5=Gobhir Rater Bela
TTITLE6=Tumi Amay Bhalobasho
TTITLE7=Beiman Bashi
TTITLE8=Eto Brishti
TTITLE9=Jibone Kichhu Kotha Thake
TTITLE10=Tomar Bhalobashar Velium
TTITLE11=Ei Jaduta
TTITLE12=Phul Phote Phul Jhore
TTITLE13=Ekbar Jodi Kew
TTITLE14=Amar Buker Moddhekhane
TTITLE15=Amar Dui Chokhe Dui Nodi
EXTD=
EXTT0=
EXTT1=
EXTT2=
EXTT3=
EXTT4=
EXTT5=
EXTT6=
EXTT7=
EXTT8=
EXTT9=
EXTT10=
EXTT11=
EXTT12=
EXTT13=
EXTT14=
EXTT15=
PLAYORDER=
